<?xml version="1.0" encoding="UTF-8"?>
<svg id="hand" xmlns="http://www.w3.org/2000/svg" version="1.1" viewBox="0 0 32 18.41">
  <!-- Generator: Adobe Illustrator 29.6.1, SVG Export Plug-In . SVG Version: 2.1.1 Build 9)  -->
  <defs>
    <style>
      .st0 {
        fill: #d67d00;
      }

      .st1 {
        fill: #ffc83d;
      }
    </style>
  </defs>
  <path class="st1" d="M16,5.38c-.05-.77-.69-1.37-1.47-1.37s-1.47.66-1.47,1.47v.41c0,.14-.17.22-.27.11l-3.33-3.33c-.51-.51-1.37-.52-1.87,0-.49.51-.48,1.31.02,1.82l-1.27-1.27c-.51-.51-1.37-.52-1.87,0-.49.51-.48,1.31.02,1.82-.5-.5-1.31-.51-1.82-.02-.52.5-.51,1.36,0,1.87l1.53,1.53c-.5-.5-1.31-.51-1.82-.02-.52.5-.51,1.36,0,1.87l4.65,4.65c2.03,2.03,5.36,2.04,7.38.01.99-1,1.54-2.27,1.59-3.54.05,1.27.59,2.53,1.59,3.54,2.02,2.03,5.35,2.02,7.38-.01l4.65-4.65c.51-.51.52-1.37,0-1.87-.51-.49-1.32-.48-1.82.02l1.53-1.53c.51-.51.52-1.37,0-1.87-.51-.49-1.32-.48-1.82.02.5-.51.51-1.31.02-1.82-.5-.52-1.36-.51-1.87,0l-1.27,1.27c.5-.51.51-1.31.02-1.82-.5-.52-1.36-.51-1.87,0l-3.33,3.33c-.1.11-.27.03-.27-.11v-.41c0-.81-.66-1.47-1.47-1.47s-1.42.61-1.47,1.37Z"/>
  <path class="st0" d="M7.61,4.49c-.3-.3-.42-.72-.35-1.13l3.45,3.45c.1.1.1.27-.01.38-.11.11-.28.11-.38.01l-2.71-2.71ZM4.47,5.01l.03.03c-.3-.3-.42-.72-.35-1.12l4.73,4.73c.1.1.1.27-.01.38-.11.11-.28.11-.38,0l-4.02-4.03ZM6.66,10.87c.1.1.27.1.38,0,.1-.11.11-.28,0-.38L2.31,5.75c-.07.38.04.78.31,1.08l4.04,4.04ZM24.39,4.49c.3-.3.42-.72.35-1.13l-3.45,3.45c-.1.1-.1.27,0,.38.11.11.28.11.38.01l2.71-2.71ZM27.5,5.04l.03-.03-4.02,4.03c-.1.1-.27.1-.38,0-.11-.11-.11-.28,0-.38l4.73-4.73c.07.4-.05.82-.35,1.12ZM24.96,10.86c.11.11.28.11.38,0l4.04-4.04c.27-.3.38-.7.31-1.08l-4.73,4.73c-.11.1-.1.27,0,.38ZM17,11.18c-.01,1.34.54,2.69,1.59,3.75.88.89,2.01,1.38,3.17,1.49-1.5.14-3.04-.35-4.17-1.49-1.05-1.06-1.6-2.41-1.59-3.75v-5.7c0-.81.66-1.47,1.47-1.47.18,0,.34.03.5.09-.57.2-.97.74-.97,1.38v5.7Z"/>
</svg>