<svg xmlns="http://www.w3.org/2000/svg" viewBox="0 0 248.54 248.54" id="rocket">
  <g>
    <path fill="#ffca28" d="M95.94,188.62l-13.48-13.48c-9.31,6.11-16.41,9.95-16.51,10.01-.28,.15-.59,.23-.89,.23-.49,0-.97-.19-1.34-.55-.59-.59-.72-1.5-.33-2.23,.06-.1,3.9-7.2,10.01-16.51l-13.48-13.48-2.83-2.83c-12.55,6.19-23.31,14.84-32.03,25.75-7.4,9.27-13.34,20.17-17.65,32.4C.08,228.72,0,245.93,0,246.65c0,1.04,.85,1.89,1.89,1.89,.72,0,17.93-.08,38.72-7.41,12.23-4.31,23.13-10.25,32.4-17.65,10.91-8.71,19.56-19.48,25.75-32.03l-2.83-2.83Z"></path>
    <path fill="#e0e0e0" d="M244.4,39.94c-.71-1.29-1.55-2.75-2.54-4.33-2.92-4.65-7.11-10.38-12.84-16.1-5.72-5.72-11.45-9.92-16.1-12.83-1.58-.99-3.04-1.84-4.33-2.54-.4-.22-.86-.29-1.31-.19-19.82,4.3-39.1,12.32-57.33,23.84-15.33,9.69-30.1,21.96-43.89,36.48-6.85,7.22-13.04,14.54-18.57,21.67-.87,1.12-1.72,2.23-2.56,3.34-10.5,13.92-18.41,26.86-23.77,36.46-.65,1.16-1.25,2.27-1.83,3.32-.66,1.23-1.28,2.39-1.85,3.47-.38,.73-.24,1.63,.34,2.21l1.83,1.83,20.16,20.16c.74-1.02,1.49-2.05,2.26-3.08,.52-.7,1.05-1.4,1.59-2.1,6.97-9.05,13.74-16.28,20.14-21.48,8.2-6.67,15.88-10.04,22.8-10.04,1.04,0,1.89,.85,1.89,1.89,0,6.93-3.38,14.6-10.04,22.8-5.2,6.4-12.43,13.18-21.48,20.14-.7,.54-1.4,1.07-2.1,1.59-1.03,.77-2.06,1.53-3.08,2.26l20.16,20.16,1.83,1.83c.36,.36,.85,.55,1.34,.55,.3,0,.6-.07,.87-.21,1.08-.56,2.24-1.18,3.47-1.85,1.06-.57,2.16-1.18,3.32-1.83,9.6-5.35,22.54-13.27,36.45-23.77,1.11-.84,2.22-1.69,3.34-2.56,7.13-5.53,14.45-11.72,21.67-18.57,14.52-13.79,26.79-28.55,36.48-43.89,11.51-18.22,19.53-37.51,23.84-57.33,.1-.44,.03-.91-.19-1.31Zm-84.55,21.17c0-7.36,2.87-14.29,8.07-19.49s12.13-8.08,19.49-8.08,14.29,2.87,19.49,8.08c5.21,5.21,8.07,12.13,8.07,19.49s-2.87,14.29-8.07,19.49c-5.21,5.21-12.13,8.07-19.49,8.07s-14.29-2.87-19.49-8.07-8.07-12.13-8.07-19.49Z"></path>
    <path fill="#d32f2f" d="M159.26 163.6c-13.92 10.5-26.86 18.41-36.45 23.77-1.16.65-2.27 1.25-3.32 1.83 1.56 2.53 3.2 5.55 4.69 9.01 4.52 10.49 8.57 27.31 2.23 47.89-.26.83.09 1.73.83 2.17.3.18.64.27.97.27.49 0 .97-.19 1.34-.55 11.68-11.68 20.56-23.93 26.38-36.41 4.68-10.03 7.41-20.24 8.12-30.32.59-8.42-.33-15.31-1.44-20.21-1.12.87-2.23 1.72-3.34 2.56zM87.5 85.94c-4.91-1.12-11.8-2.03-20.21-1.44-10.09.7-20.29 3.44-30.32 8.12-12.48 5.82-24.73 14.7-36.41 26.38-.61.61-.73 1.57-.28 2.31.45.74 1.34 1.09 2.17.83 20.59-6.33 37.41-2.28 47.89 2.23 3.46 1.49 6.48 3.13 9.01 4.69.57-1.06 1.18-2.16 1.83-3.32 5.35-9.6 13.27-22.54 23.77-36.46.84-1.11 1.69-2.22 2.56-3.34zM248.52 1.88c-.01-1.02-.84-1.85-1.87-1.87-13.36-.16-26.61 1.16-39.37 3.94.44-.1.91-.03 1.31.19 1.29.71 2.75 1.55 4.33 2.54 4.65 2.92 10.37 7.11 16.1 12.83 5.72 5.72 9.92 11.45 12.84 16.1.99 1.58 1.84 3.04 2.54 4.33.22.4.29.86.19 1.31 2.77-12.76 4.1-26.01 3.94-39.37zM126.63 120.02c-6.93 0-14.6 3.38-22.8 10.04-6.4 5.2-13.18 12.43-20.14 21.48-.54.7-1.07 1.4-1.59 2.1-.77 1.03-1.53 2.06-2.26 3.08-1.51 2.09-2.95 4.16-4.3 6.15-.74 1.09-1.45 2.16-2.14 3.21-6.11 9.31-9.95 16.41-10.01 16.51-.4.73-.26 1.64.33 2.23.36.36.85.55 1.34.55.31 0 .61-.07.89-.23.1-.06 7.2-3.9 16.51-10.01 1.04-.69 2.11-1.4 3.21-2.14 1.99-1.35 4.06-2.79 6.15-4.3 1.02-.74 2.05-1.49 3.08-2.26.7-.52 1.4-1.05 2.1-1.59 9.05-6.97 16.28-13.74 21.48-20.14 6.67-8.2 10.04-15.88 10.04-22.8 0-1.04-.85-1.89-1.89-1.89z"></path>
    <path fill="#81d4fa" d="M170.6,77.94c4.49,4.49,10.47,6.97,16.82,6.97s12.33-2.47,16.82-6.97c4.49-4.49,6.97-10.47,6.97-16.82s-2.47-12.33-6.97-16.82c-4.49-4.49-10.47-6.97-16.82-6.97s-12.33,2.47-16.82,6.97c-4.49,4.49-6.97,10.47-6.97,16.82s2.47,12.33,6.97,16.82Z"></path>
    <g>
      <path fill="#bdbdbd" d="M113.8 190.7l-1.83-1.83-20.16-20.16c-2.09 1.51-4.16 2.95-6.15 4.3-1.09.74-2.16 1.45-3.21 2.14l13.48 13.48 2.83 2.83 4.43 4.43c.36.36.84.55 1.34.55.25 0 .51-.05.75-.15.17-.07 4.12-1.79 10.73-5.24-.28.14-.58.21-.87.21-.49 0-.97-.19-1.34-.55zM57.84 134.74c-.58-.58-.72-1.48-.34-2.21-3.45 6.61-5.17 10.57-5.24 10.73-.31.71-.15 1.54.4 2.08l4.43 4.43 2.83 2.83 13.48 13.48c.69-1.04 1.4-2.11 2.14-3.21 1.35-1.99 2.79-4.06 4.3-6.15l-20.16-20.16-1.83-1.83zM206.92 41.62c-5.21-5.21-12.13-8.08-19.49-8.08s-14.29 2.87-19.49 8.08-8.07 12.13-8.07 19.49 2.87 14.29 8.07 19.49 12.13 8.07 19.49 8.07 14.29-2.87 19.49-8.07c5.21-5.21 8.07-12.13 8.07-19.49s-2.87-14.29-8.07-19.49zm-2.67 36.32c-4.49 4.49-10.47 6.97-16.82 6.97s-12.33-2.47-16.82-6.97c-4.49-4.49-6.97-10.47-6.97-16.82s2.47-12.33 6.97-16.82c4.49-4.49 10.47-6.97 16.82-6.97s12.33 2.47 16.82 6.97c4.49 4.49 6.97 10.47 6.97 16.82s-2.47 12.33-6.97 16.82z"></path>
    </g>
  </g>
</svg>
